# xmcd CD database file
#
# Track frame offsets:
#	150
#	18990
#	38290
#
# Disc length: 759 seconds
#
# Revision: 0
# Processed by: cddbd v1.5PL3 Copyright (c) Steve Scherf et al.
# Submitted via: CDex 1.50beta10
#
DISCID=1202f503
DTITLE=遊佐未森 - タペストリー
DYEAR=1997
DGENRE=JPop
TTITLE0=タペストリー
TTITLE1=MOVE
TTITLE2=タペストリー[backing track]
EXTD=YEAR: 1997
EXTT0=
EXTT1=
EXTT2=
PLAYORDER=
